# xmcd
#
# Track frame offsets: 
#        150
#        15030
#        29280
#        50652
#        63852
#        83925
#        100437
#        117775
#        132322
#        152187
#        168707
#        189612
#        211710
#        225377
#        243782
#        258177
#        269717
#        281940
#
# Disc length: 4218 seconds
#
# Revision: 0
# Processed by: cddbd v1.5.2PL0 Copyright (c) Steve Scherf et al.
# Submitted via: ExactAudioCopy v0.99pb4
#
DISCID=f6107812
DTITLE=Various Artist - 將軍令 - 曲藝繞樑廣東音樂
DYEAR=1989
DGENRE=廣東音樂
TTITLE0=將軍令
TTITLE1=鳥投林
TTITLE2=旱天雷
TTITLE3=一帆風順
TTITLE4=妝台秋思
TTITLE5=雨打芭蕉
TTITLE6=賽龍奪錦
TTITLE7=春效試馬
TTITLE8=漢宮秋月
TTITLE9=餓馬搖鈴
TTITLE10=柳浪聞鶯
TTITLE11=鴛鴦戲水
TTITLE12=娛樂昇平
TTITLE13=彩雲追月
TTITLE14=孔雀開屏
TTITLE15=擊鼓罵曹
TTITLE16=秋水龍吟
TTITLE17=春江花月夜
EXTD=
EXTT0=
EXTT1=
EXTT2=
EXTT3=
EXTT4=
EXTT5=
EXTT6=
EXTT7=
EXTT8=
EXTT9=
EXTT10=
EXTT11=
EXTT12=
EXTT13=
EXTT14=
EXTT15=
EXTT16=
EXTT17=
PLAYORDER=
